<svg xmlns="http://www.w3.org/2000/svg" width="338.286" height="85" viewBox="0 0 338.286 85">
  <g id="Group_2" data-name="Group 2" transform="translate(-1046.849 -7734)">
    <rect id="Rectangle_1" data-name="Rectangle 1" width="338" height="78" rx="10" transform="translate(1047 7738)" fill="#fc4f4f"/>
    <path id="Path_1" data-name="Path 1" d="M1128.6,7738.192s35.747,15.436,78.193,30.934,48.791,12.472,72.2,19.372,20.1,21.674,10.055,26.448-62.271,0-62.271,0-160.012,4.1-171.205.936-8.377-9.413-8.476-27.383,0-42.573,0-42.573-.318-6.031,7.483-7.733c9.692-.194,29.1-.024,40.35,0C1114.734,7738.234,1128.6,7738.192,1128.6,7738.192Z" fill="rgba(255,255,255,0.05)"/>
    <path id="Path_2" data-name="Path 2" d="M31.383,36.2c12.149,0,17.608-.633,19.5,1.54,4.186,2.742,5.1,3.465,5.1,15.315,0,8.048-.211,15.135,0,20.6.171,4.41-.221,7.339,0,9.777C55.958,85.749,57.929,86,48.5,86,21.714,86,0,66.748,0,43c0-8.051-1.29-6.994,1.211-6.8C5.294,36.26,15.354,36.2,31.383,36.2Z" transform="translate(1329 7702)" fill="rgba(255,255,255,0.13)"/>
    <circle id="Ellipse_1" data-name="Ellipse 1" cx="3.5" cy="3.5" r="3.5" transform="translate(1301 7734)" fill="#f5f4f6"/>
    <circle id="Ellipse_2" data-name="Ellipse 2" cx="3.5" cy="3.5" r="3.5" transform="translate(1301 7812)" fill="#f5f4f6"/>
    <g id="Group_1" data-name="Group 1" transform="translate(0.5 -0.091)">
      <rect id="Rectangle_2" data-name="Rectangle 2" width="1" height="2.5" rx="0.5" transform="translate(1303.5 7745.841)" fill="#f5f4f6"/>
      <rect id="Rectangle_2-2" data-name="Rectangle 2" width="1" height="2.5" rx="0.5" transform="translate(1303.5 7750.841)" fill="#f5f4f6"/>
      <rect id="Rectangle_2-3" data-name="Rectangle 2" width="1" height="2.5" rx="0.5" transform="translate(1303.5 7755.841)" fill="#f5f4f6"/>
      <rect id="Rectangle_2-4" data-name="Rectangle 2" width="1" height="2.5" rx="0.5" transform="translate(1303.5 7760.841)" fill="#f5f4f6"/>
      <rect id="Rectangle_2-5" data-name="Rectangle 2" width="1" height="2.5" rx="0.5" transform="translate(1303.5 7765.841)" fill="#f5f4f6"/>
      <rect id="Rectangle_2-6" data-name="Rectangle 2" width="1" height="2.5" rx="0.5" transform="translate(1303.5 7770.841)" fill="#f5f4f6"/>
      <rect id="Rectangle_2-7" data-name="Rectangle 2" width="1" height="2.5" rx="0.5" transform="translate(1303.5 7775.841)" fill="#f5f4f6"/>
      <rect id="Rectangle_2-8" data-name="Rectangle 2" width="1" height="2.5" rx="0.5" transform="translate(1303.5 7780.841)" fill="#f5f4f6"/>
      <rect id="Rectangle_2-9" data-name="Rectangle 2" width="1" height="2.5" rx="0.5" transform="translate(1303.5 7785.841)" fill="#f5f4f6"/>
      <rect id="Rectangle_2-10" data-name="Rectangle 2" width="1" height="2.5" rx="0.5" transform="translate(1303.5 7790.841)" fill="#f5f4f6"/>
      <rect id="Rectangle_2-11" data-name="Rectangle 2" width="1" height="2.5" rx="0.5" transform="translate(1303.5 7795.841)" fill="#f5f4f6"/>
      <rect id="Rectangle_2-12" data-name="Rectangle 2" width="1" height="2.5" rx="0.5" transform="translate(1303.5 7800.841)" fill="#f5f4f6"/>
      <rect id="Rectangle_2-13" data-name="Rectangle 2" width="1" height="2.5" rx="0.5" transform="translate(1303.5 7805.841)" fill="#f5f4f6"/>
    </g>
  </g>
</svg>
